<svg width="45" height="44" viewBox="0 0 45 44" fill="none" xmlns="http://www.w3.org/2000/svg">
<path d="M2.88 0L2.736 6H0.24V9.264H2.64L2.352 23.472C2.352 23.952 2.304 24.336 2.304 24.816C2.256 25.536 2.256 26.304 2.256 27.024C2.256 30.24 2.736 33.312 5.616 35.808H5.568L5.808 36.048C4.32 37.728 2.4 39.408 0 41.184L1.92 43.824C4.56 41.856 6.624 40.08 8.304 38.256L14.688 43.872L16.656 41.664L16.416 42.144L19.344 43.728C21.312 40.08 22.752 36.528 23.808 32.4L31.152 36.96C28.8 38.448 26.16 39.6 23.28 40.416L24.144 43.632C27.792 42.576 31.152 40.896 34.032 38.784L42.048 43.728L43.728 40.992L36.624 36.624C39.648 33.744 41.952 30.288 43.248 26.4H24.912C25.056 25.536 25.152 24.624 25.248 23.664H43.248V20.4H25.536L25.68 17.472L22.416 17.28C22.368 18.384 22.32 19.392 22.224 20.4H18.288V23.664H21.936C21.12 30.864 19.536 36.144 16.8 41.376L10.32 35.664C14.544 29.472 14.64 22.368 14.64 9.6V9.264H16.272V6H6L6.144 0.0959988L2.88 0ZM37.968 5.904V10.608H32.544V5.904H29.28V10.608H23.904V5.904H20.64V11.04C18.816 11.856 17.52 13.632 17.52 15.744V18H20.784V15.744C20.784 14.688 21.648 13.872 22.704 13.872H38.832C39.936 13.872 40.752 14.688 40.752 15.744V18H44.016V15.744C44.016 13.776 42.864 12.096 41.232 11.232V5.904H37.968ZM5.52 27.024C5.52 26.304 5.52 25.632 5.568 24.96C5.568 24.48 5.616 24 5.616 23.52L5.904 9.264H11.376V9.6C11.376 21.264 11.28 27.84 7.776 33.408L7.728 33.312C5.808 31.632 5.52 29.424 5.52 27.024ZM18.72 3.888H43.152V0.624001H18.72V3.888ZM38.496 29.664C37.44 31.536 35.856 33.312 33.936 34.944L25.488 29.664H38.496Z" fill="#D96F6F"/>
</svg>
